<svg width="255" height="256" viewBox="0 0 255 256" fill="none" xmlns="http://www.w3.org/2000/svg">
<mask id="mask0_518_1501" style="mask-type:alpha" maskUnits="userSpaceOnUse" x="0" y="0" width="255" height="256">
<rect y="0.5" width="255" height="255" rx="127.5" fill="#FFCBCB"/>
</mask>
<g mask="url(#mask0_518_1501)">
<circle cx="193.903" cy="112.931" r="31.4963" fill="#FFC700"/>
<path d="M163.731 114.8C174.458 118.261 190.564 97.2289 188.706 94.883L182.646 91.2664C181.864 95.0198 169.711 99.3468 163.731 101.041C156.779 103.011 155.15 112.032 163.731 114.8Z" fill="#3DA2FF"/>
<path d="M190.66 143.221C187.2 132.495 208.232 116.389 210.577 118.246L214.194 124.307C210.441 125.089 206.114 137.242 204.419 143.221C202.056 151.562 193.428 151.803 190.66 143.221Z" fill="#3DA2FF"/>
<path d="M181.161 87.1864C181.161 97.2924 191.945 95.5398 196.046 95.2361" stroke="black" stroke-width="6.69578" stroke-linecap="round"/>
<path d="M218.948 126.747C210.538 125.422 210.845 115.774 211.244 111.681" stroke="black" stroke-width="6.69578" stroke-linecap="round"/>
<path d="M182.971 113.572C185.003 112.285 189.405 110.005 192.671 113.093C195.937 116.182 193.319 120.867 191.602 122.584" stroke="black" stroke-width="3.34789" stroke-linecap="round"/>
<circle cx="85.2247" cy="181.382" r="29.1043" fill="url(#paint0_linear_518_1501)"/>
<circle cx="79.6947" cy="197.981" r="3.3695" fill="#3DA2FF"/>
<circle cx="75.5594" cy="188.226" r="8.47638" fill="white" stroke="black"/>
<circle cx="84.5357" cy="165.84" r="8.47638" fill="white" stroke="black"/>
<path d="M79.2353 187.89C81.2517 186.577 80.8179 183.67 80.349 182.38C75.7958 177.295 67.805 183.025 68.3911 185.252C68.8601 187.034 70.345 187.753 71.0289 187.89C71.0289 188.887 71.7909 190.927 74.839 191.114C78.6491 191.349 76.7147 189.531 79.2353 187.89Z" fill="black" stroke="black" stroke-width="0.966101" stroke-linecap="round"/>
<path d="M88.1559 165.562C90.1724 164.249 89.7386 161.342 89.2696 160.052C84.7165 154.967 76.7256 160.697 77.3118 162.924C77.7807 164.706 79.2657 165.425 79.9496 165.562C79.9496 166.559 80.7116 168.599 83.7597 168.786C87.5697 169.021 85.6354 167.203 88.1559 165.562Z" fill="black" stroke="black" stroke-width="0.966101" stroke-linecap="round"/>
<path d="M64.3352 175.263C65.6384 176.767 63.0319 180.877 59.3228 180.276" stroke="black" stroke-width="1.9322" stroke-linecap="round"/>
<path d="M67.8958 162.406C69.8713 162.645 71.8201 158.185 69.2466 155.447" stroke="black" stroke-width="1.9322" stroke-linecap="round"/>
<path d="M94.5093 194.659C93.0604 191.657 95.4407 186.586 98.8558 187.207" stroke="black" stroke-width="1.9322" stroke-linecap="round"/>
<circle cx="100.846" cy="70.3073" r="42.5462" fill="#FFC700"/>
<path d="M77.188 83.631C77.188 83.631 70.5762 75.8665 77.7402 68.4781C84.9042 61.0897 93.2707 67.0445 93.2707 67.0445" stroke="black" stroke-width="4.8305" stroke-linecap="round"/>
<path d="M105.373 57.1806C105.373 57.1806 98.7613 49.4161 105.925 42.0277C113.089 34.6392 121.456 40.594 121.456 40.594" stroke="black" stroke-width="4.8305" stroke-linecap="round"/>
<path d="M124.896 90.9558C131.613 84.2389 130.5 72.2349 122.409 64.1441L98.0848 88.4681C106.176 96.5589 118.18 97.6727 124.896 90.9558Z" fill="black"/>
<path d="M82.5726 115.504L76.7228 120.704" stroke="#3DA2FF" stroke-width="3.38135" stroke-linecap="round"/>
<circle cx="90.6709" cy="118.104" r="2.59993" fill="#3DA2FF"/>
<rect x="95.2798" y="116.208" width="3.8999" height="18.6101" rx="1.94995" transform="rotate(13.6137 95.2798 116.208)" fill="#3DA2FF"/>
<path d="M73.0551 78.9039C76.2882 83.1739 75.5683 89.1652 71.4469 92.2857C67.3256 95.4063 61.3637 94.4744 58.1305 90.2044C52.4547 82.7084 54.2337 69.5521 54.2337 69.5521C54.2337 69.5521 67.4529 71.5051 73.0551 78.9039Z" fill="#3DA2FF"/>
<ellipse cx="128" cy="235.386" rx="36.3328" ry="7.8346" fill="#FE8C33"/>
</g>
<defs>
<linearGradient id="paint0_linear_518_1501" x1="91.543" y1="181.382" x2="44.72" y2="158.688" gradientUnits="userSpaceOnUse">
<stop offset="0.239583" stop-color="#FFC700"/>
<stop offset="0.75" stop-color="#00B3FF"/>
</linearGradient>
</defs>
</svg>
