<svg width="32" height="32" viewBox="0 0 32 32" fill="none" xmlns="http://www.w3.org/2000/svg">
<path fill-rule="evenodd" clip-rule="evenodd" d="M9.75391 13.9685C9.75391 12.3413 10.4003 10.7807 11.5509 9.63009C12.7015 8.47948 14.2621 7.83307 15.8893 7.83307C17.5165 7.83307 19.0771 8.47948 20.2277 9.63009C21.3783 10.7807 22.0247 12.3413 22.0247 13.9685C22.0247 15.5957 21.3783 17.1563 20.2277 18.3069C19.0771 19.4575 17.5165 20.1039 15.8893 20.1039C14.2621 20.1039 12.7015 19.4575 11.5509 18.3069C10.4003 17.1563 9.75391 15.5957 9.75391 13.9685ZM15.8893 9.77057C14.776 9.77057 13.7082 10.2128 12.9209 11.0001C12.1337 11.7874 11.6914 12.8551 11.6914 13.9685C11.6914 15.0818 12.1337 16.1496 12.9209 16.9369C13.7082 17.7241 14.776 18.1664 15.8893 18.1664C17.0027 18.1664 18.0704 17.7241 18.8577 16.9369C19.645 16.1496 20.0872 15.0818 20.0872 13.9685C20.0872 12.8551 19.645 11.7874 18.8577 11.0001C18.0704 10.2128 17.0027 9.77057 15.8893 9.77057Z" fill="#6D6D6D"/>
<path fill-rule="evenodd" clip-rule="evenodd" d="M4.94189 12.4917C5.16267 9.81385 6.38239 7.31691 8.35888 5.49667C10.3354 3.67643 12.9241 2.66601 15.6111 2.66602H16.1691C18.856 2.66601 21.4447 3.67643 23.4212 5.49667C25.3977 7.31691 26.6174 9.81385 26.8382 12.4917C27.0839 15.4746 26.1624 18.4363 24.2678 20.7532L18.0768 28.3237C17.8119 28.6477 17.4783 28.9088 17.1001 29.088C16.7219 29.2673 16.3086 29.3603 15.8901 29.3603C15.4715 29.3603 15.0582 29.2673 14.68 29.088C14.3018 28.9088 13.9682 28.6477 13.7033 28.3237L7.5123 20.7532C5.61758 18.4364 4.69606 15.4746 4.94189 12.4917ZM15.6111 4.60352C13.4107 4.60385 11.2909 5.43151 9.67238 6.92221C8.05391 8.41292 7.0551 10.4577 6.87422 12.6506C6.66962 15.133 7.43646 17.5979 9.01322 19.5261L15.2042 27.0979C15.2874 27.1998 15.3922 27.2818 15.5111 27.3382C15.6299 27.3946 15.7598 27.4238 15.8913 27.4238C16.0229 27.4238 16.1528 27.3946 16.2716 27.3382C16.3905 27.2818 16.4953 27.1998 16.5785 27.0979L22.7695 19.5261C24.3453 17.5975 25.1112 15.1327 24.9059 12.6506C24.725 10.4574 23.726 8.41251 22.1072 6.92178C20.4885 5.43104 18.3684 4.60352 16.1678 4.60352H15.6098H15.6111Z" fill="#6D6D6D"/>
</svg>
