<svg width="27" height="25" viewBox="0 0 27 25" fill="none" xmlns="http://www.w3.org/2000/svg">
<g id="mic">
<path id="Vector" d="M13.7788 2.28543C12.9169 2.28543 12.0902 2.6015 11.4807 3.16411C10.8712 3.72672 10.5288 4.48978 10.5288 5.28543V12.2854C10.5288 13.0811 10.8712 13.8441 11.4807 14.4068C12.0902 14.9694 12.9169 15.2854 13.7788 15.2854C14.6408 15.2854 15.4674 14.9694 16.0769 14.4068C16.6864 13.8441 17.0288 13.0811 17.0288 12.2854V5.28543C17.0288 4.48978 16.6864 3.72672 16.0769 3.16411C15.4674 2.6015 14.6408 2.28543 13.7788 2.28543Z" stroke="#FFC700" stroke-width="2" stroke-linecap="round" stroke-linejoin="round"/>
<path id="Vector_2" d="M21.3622 10.2854V12.2854C21.3622 14.1419 20.5633 15.9224 19.1411 17.2352C17.719 18.5479 15.7901 19.2854 13.7789 19.2854C11.7677 19.2854 9.83881 18.5479 8.41666 17.2352C6.99451 15.9224 6.19556 14.1419 6.19556 12.2854V10.2854" stroke="#FFC700" stroke-width="2" stroke-linecap="round" stroke-linejoin="round"/>
<path id="Vector_3" d="M13.7788 19.2854V22.2854" stroke="#FFC700" stroke-width="2" stroke-linecap="round" stroke-linejoin="round"/>
</g>
</svg>
