<svg width="97" height="81" viewBox="0 0 97 81" fill="none" xmlns="http://www.w3.org/2000/svg">
<path d="M48.5 6.9973C45.3174 6.9973 42.2652 8.05087 40.0147 9.92623C37.7643 11.8016 36.5 14.3451 36.5 16.9973V40.3306C36.5 42.9828 37.7643 45.5263 40.0147 47.4017C42.2652 49.2771 45.3174 50.3306 48.5 50.3306C51.6826 50.3306 54.7348 49.2771 56.9853 47.4017C59.2357 45.5263 60.5 42.9828 60.5 40.3306V16.9973C60.5 14.3451 59.2357 11.8016 56.9853 9.92623C54.7348 8.05087 51.6826 6.9973 48.5 6.9973Z" stroke="black" stroke-width="6" stroke-linecap="round" stroke-linejoin="round"/>
<path d="M76.5 33.6639V40.3306C76.5 46.519 73.55 52.4539 68.299 56.8298C63.048 61.2056 55.9261 63.6639 48.5 63.6639C41.0739 63.6639 33.952 61.2056 28.701 56.8298C23.45 52.4539 20.5 46.519 20.5 40.3306V33.6639" stroke="black" stroke-width="6" stroke-linecap="round" stroke-linejoin="round"/>
<path d="M48.5 63.664V73.664" stroke="black" stroke-width="6" stroke-linecap="round" stroke-linejoin="round"/>
</svg>
