<svg width="255" height="256" viewBox="0 0 255 256" fill="none" xmlns="http://www.w3.org/2000/svg">
<mask id="mask0_518_1367" style="mask-type:alpha" maskUnits="userSpaceOnUse" x="0" y="0" width="255" height="256">
<rect y="0.0358887" width="255" height="255" rx="127.5" fill="#FFCBCB"/>
</mask>
<g mask="url(#mask0_518_1367)">
<path d="M110.263 62.3004C116.177 56.0285 124.409 59.3377 128.08 60.8393C136.024 55.7981 143.834 59.2696 147.426 63.7788C155.031 73.3243 162.728 109.769 162.728 119.187C162.728 126.722 155.519 133.443 151.915 135.861C139.3 135.783 112.142 135.673 104.432 135.861C94.7945 136.097 91.7143 123.273 94.5742 119.187C97.4342 115.102 97.8041 75.5136 110.263 62.3004Z" fill="black" stroke="black"/>
<rect x="119.067" y="116.595" width="20.3228" height="25.0577" transform="rotate(-0.246396 119.067 116.595)" fill="#FFF6D6" stroke="black"/>
<path fill-rule="evenodd" clip-rule="evenodd" d="M138.946 124.033C135.998 126.984 132.433 128.71 128.593 128.71C125.351 128.71 122.304 127.479 119.66 125.319L119.633 118.667C122.26 121.092 125.335 122.486 128.621 122.486C132.471 122.486 136.031 120.573 138.919 117.329L138.946 124.033Z" fill="#FFC700"/>
<path d="M70.3439 159.451C85.5581 139.181 107.632 133.064 118.313 133.286C118.51 135.072 119.785 136.61 121.603 137.707C123.594 138.907 126.312 139.634 129.287 139.634C132.263 139.634 134.981 138.907 136.971 137.707C138.798 136.605 140.077 135.057 140.265 133.261C165.846 131.153 183.23 147.157 188.728 155.442L188.732 155.449L188.737 155.456C192.608 160.888 197.772 170.065 200.672 179.912C203.577 189.775 204.177 200.193 199.091 208.215C193.983 216.271 187.574 218.651 181.648 218.414C175.677 218.175 170.139 215.273 166.871 212.661L166.143 212.079L166.06 213.007L162.369 254.265C162.314 254.296 162.245 254.332 162.157 254.37C161.968 254.453 161.721 254.538 161.414 254.623C160.8 254.794 159.981 254.957 158.979 255.11C156.976 255.416 154.286 255.674 151.131 255.884C144.824 256.303 136.698 256.523 128.578 256.535C120.459 256.547 112.357 256.351 106.099 255.938C102.968 255.731 100.309 255.471 98.344 255.158C97.3602 255.001 96.5632 254.833 95.9729 254.655C95.6777 254.567 95.4447 254.479 95.2704 254.394C95.0897 254.307 95.0039 254.238 94.9714 254.201C94.8689 254.086 94.7401 253.877 94.594 253.55C94.4509 253.23 94.3029 252.824 94.1516 252.335C93.8491 251.358 93.543 250.084 93.238 248.578C92.6282 245.568 92.0302 241.67 91.4746 237.454C90.3637 229.022 89.4262 219.347 88.9028 213.01L88.8264 212.085L88.096 212.658C86.7361 213.723 84.5594 214.491 81.9424 214.896C79.3379 215.3 76.3512 215.337 73.4185 214.985C70.4844 214.634 67.6258 213.896 65.2699 212.765C62.9089 211.631 61.097 210.125 60.1799 208.262C58.2262 204.291 55.8399 198.691 56.3851 190.807C56.9308 182.917 60.418 172.675 70.3439 159.451Z" fill="#FF7F00" stroke="black"/>
<path d="M171.674 152.144C171.283 151.465 170.955 150.953 170.701 150.617C170.562 151.934 169.602 153.06 168.339 153.972C166.955 154.972 165.095 155.8 163.149 156.421C161.198 157.044 159.132 157.469 157.316 157.652C155.551 157.829 153.945 157.785 152.92 157.412C152.909 157.471 152.899 157.561 152.898 157.694C152.898 158.265 153.079 159.204 153.418 160.438C154.091 162.88 155.329 166.282 156.689 169.746C158.046 173.205 159.518 176.708 160.651 179.348C161.217 180.668 161.698 181.771 162.038 182.544C162.167 182.839 162.276 183.086 162.362 183.278L181.661 173.439C181.577 173.242 181.464 172.982 181.328 172.667C180.997 171.905 180.526 170.822 179.96 169.537C178.827 166.967 177.318 163.593 175.809 160.371C174.298 157.145 172.795 154.088 171.674 152.144ZM170.739 150.046C170.74 150.043 170.741 150.041 170.741 150.04C170.741 150.04 170.74 150.042 170.739 150.046Z" fill="#FF7F00" stroke="black"/>
<path d="M87.1707 150.357C87.5618 149.679 87.8899 149.166 88.1436 148.831C88.2825 150.147 89.2421 151.273 90.505 152.186C91.8894 153.186 93.7493 154.013 95.6955 154.635C97.6462 155.258 99.7127 155.683 101.528 155.865C103.294 156.042 104.899 155.998 105.925 155.625C105.936 155.684 105.946 155.775 105.946 155.907C105.946 156.478 105.766 157.418 105.426 158.651C104.754 161.094 103.515 164.496 102.156 167.959C100.798 171.418 99.3264 174.922 98.1937 177.561C97.6275 178.881 97.1462 179.984 96.8066 180.757C96.677 181.052 96.5681 181.299 96.4829 181.492L77.183 171.652C77.2678 171.456 77.3802 171.195 77.5168 170.88C77.847 170.118 78.3188 169.035 78.8849 167.75C80.0174 165.181 81.5266 161.806 83.0353 158.585C84.5461 155.359 86.0492 152.301 87.1707 150.357ZM88.1058 148.26C88.1042 148.256 88.1036 148.254 88.1037 148.254C88.1038 148.254 88.1045 148.256 88.1058 148.26Z" fill="#FF7F00" stroke="black"/>
<path d="M162.321 183.638L164.538 197.204" stroke="black"/>
<path d="M96.5238 181.851L94.3062 195.418" stroke="black"/>
<path d="M182.05 173.571L192.404 182.614" stroke="black"/>
<path d="M76.7944 171.784L66.4406 180.827" stroke="black"/>
<path d="M147.348 97.0685C147.348 104.405 145.21 111.026 141.78 115.801C138.349 120.576 133.653 123.473 128.517 123.473C123.381 123.473 118.685 120.576 115.254 115.801C111.824 111.026 109.686 104.405 109.686 97.0685C109.686 89.825 114.416 82.1085 119.241 76.1409C121.642 73.1709 124.044 70.6609 125.847 68.8931C126.748 68.0095 127.498 67.3121 128.023 66.8362C128.221 66.6559 128.387 66.5074 128.517 66.3927C128.647 66.5074 128.813 66.6559 129.012 66.8362C129.536 67.3121 130.286 68.0095 131.187 68.8931C132.99 70.6609 135.393 73.1709 137.794 76.1409C142.618 82.1085 147.348 89.825 147.348 97.0685Z" fill="#FFF6D6" stroke="black"/>
<path d="M97.6878 110.279C93.1807 110.028 91.5844 123.216 91.3496 129.841C88.7026 136.044 84.7488 149.404 90.11 153.213C96.8115 157.975 106.335 156.388 110.214 155.33C114.094 154.272 114.767 126.576 111.309 124.353C108.542 122.574 102.536 124.14 99.8787 125.146C101.026 120.294 102.195 110.529 97.6878 110.279Z" fill="#FFF6D6" stroke="black"/>
<path d="M160.682 111.172C165.189 110.922 166.786 124.109 167.02 130.734C169.667 136.938 173.621 150.298 168.26 154.107C161.559 158.869 152.035 157.281 148.156 156.223C144.276 155.165 143.603 127.47 147.061 125.246C149.828 123.468 155.834 125.034 158.491 126.039C157.344 121.188 156.175 111.423 160.682 111.172Z" fill="#FFF6D6" stroke="black"/>
<path d="M98.8106 133.367C103.047 131.65 111.869 128.985 113.272 132.052" stroke="black"/>
<path d="M159.559 134.26C155.323 132.544 146.501 129.878 145.098 132.946" stroke="black"/>
<path d="M99.9304 139.325C104.166 137.609 110.872 135.716 113.544 138.301" stroke="black"/>
<path d="M158.439 140.219C154.203 138.503 147.497 136.61 144.825 139.195" stroke="black"/>
<path d="M100.85 145.026C105.086 143.31 108.662 141.627 113.272 144.428" stroke="black"/>
<path d="M157.52 145.92C153.284 144.204 149.708 142.52 145.098 145.322" stroke="black"/>
<path d="M110.644 99.479C110.644 99.479 113.144 105 110.081 105.498C107.019 105.996 104.115 103.815 103.596 100.625C103.078 97.4362 105.14 94.4469 108.203 93.9487C111.266 93.4505 110.644 99.479 110.644 99.479Z" fill="#FFF6D6"/>
<path d="M146.688 99.479C146.688 99.479 144.187 105 147.25 105.498C150.313 105.996 153.217 103.815 153.736 100.625C154.254 97.4362 152.192 94.4469 149.129 93.9487C146.066 93.4505 146.688 99.479 146.688 99.479Z" fill="#FFF6D6"/>
<ellipse cx="113.553" cy="99.0819" rx="5.01199" ry="2.65249" fill="#FFC700"/>
<ellipse cx="143.625" cy="99.0819" rx="5.01199" ry="2.65249" fill="#FFC700"/>
<circle cx="119.844" cy="90.8318" r="1.89906" fill="black"/>
<circle cx="137.824" cy="90.8318" r="1.89906" fill="black"/>
<path d="M52.6471 81.0087L59.1612 96.5575L77.1704 101.34L64.4229 112.836L65.4125 130.945L50.2821 121.55L33.6225 128.912L37.2924 111.356L25.733 98.049L44.6911 95.5719L52.6471 81.0087Z" fill="#FFC700"/>
<path d="M187.812 59.8061L194.781 71.7145L209.91 73.6427L200.814 84.3505L203.579 98.935L190.286 92.9528L177.568 100.73L178.643 86.0898L167.824 76.5468L182.935 72.4829L187.812 59.8061Z" fill="#FFC700"/>
<path d="M114.222 11.1664L113.502 23.1523L123.512 31.8663L111.752 35.211L106.696 47.0984L99.9753 36.34L87.0133 35.8125L94.8739 25.7428L91.6645 13.6053L104.562 17.9769L114.222 11.1664Z" fill="#FFC700"/>
<path d="M137.502 105.469H120.577C121.286 108.135 122.799 113.469 129.097 113.469C135.395 113.469 136.996 108.135 137.502 105.469Z" fill="#FF7F00" stroke="black"/>
<path d="M158.482 123.644C158.482 123.644 161.383 124.889 163.274 125.04C165.164 125.191 165.931 124.875 166.117 125.401C166.304 125.927 166.52 130.875 166.52 130.875C166.52 130.875 165.877 129.82 164.279 128.907C162.682 127.994 159.171 126.812 159.171 126.812L158.482 123.644Z" fill="#FFC700"/>
<path d="M99.8027 123.147C99.8027 123.147 96.9894 123.899 95.0988 124.051C93.2081 124.202 92.4782 123.829 92.292 124.355C92.1058 124.88 91.8186 130.036 91.8186 130.036C91.8186 130.036 92.4957 128.831 94.0932 127.918C95.6907 127.005 99.1445 125.985 99.1445 125.985L99.8027 123.147Z" fill="#FFC700"/>
<path fill-rule="evenodd" clip-rule="evenodd" d="M136.724 107.495H121.473C121.213 106.842 121.029 106.227 120.881 105.722H137.226C137.12 106.227 136.965 106.842 136.724 107.495Z" fill="#EAEAEA"/>
<path d="M45.6577 59.9711C45.2774 59.2552 45.8622 58.4081 46.6664 58.5099L51.8181 59.162C52.5619 59.2562 52.9414 60.1051 52.5154 60.7222L49.7999 64.656C49.3739 65.273 48.4455 65.2192 48.0938 64.557L45.6577 59.9711Z" fill="#FF7F00"/>
<path d="M64.0565 140.796C64.5922 140.273 65.4907 140.503 65.7104 141.218L67.0109 145.451C67.2402 146.198 66.564 146.907 65.8076 146.714L61.3358 145.572C60.5794 145.379 60.3262 144.432 60.8853 143.887L64.0565 140.796Z" fill="#FF7F00"/>
<path d="M203.813 138.685C203.135 138.369 203.031 137.447 203.621 136.989L203.732 136.902C204.349 136.423 205.252 136.804 205.339 137.58L205.356 137.725C205.443 138.501 204.648 139.074 203.94 138.744L203.813 138.685Z" fill="#FF7F00"/>
<path d="M211.727 131.837C212.263 131.315 213.161 131.544 213.381 132.259L214.681 136.493C214.911 137.239 214.235 137.948 213.478 137.755L209.006 136.613C208.25 136.42 207.997 135.473 208.556 134.928L211.727 131.837Z" fill="#FF7F00"/>
<path d="M225.453 167.229C225.989 166.706 226.887 166.936 227.107 167.651L228.407 171.885C228.636 172.631 227.96 173.34 227.204 173.147L222.732 172.005C221.976 171.812 221.723 170.865 222.282 170.32L225.453 167.229Z" fill="#FFC700"/>
<path d="M136.671 40.7098C136.723 39.8993 137.668 39.485 138.299 39.9965L141.051 42.2268C141.632 42.6985 141.508 43.6189 140.822 43.9196L137.846 45.2241C137.16 45.5248 136.399 44.9922 136.446 44.2447L136.671 40.7098Z" fill="#FF7F00"/>
<path d="M227.421 223.737L230.754 220.78V228.34H227.421V223.737Z" fill="#FFC700"/>
<path d="M39.6672 166.658L44.1188 166.471L39.3441 172.332L36.76 170.227L39.6672 166.658Z" fill="#FFC700"/>
</g>
</svg>
