<svg width="187" height="192" viewBox="0 0 187 192" fill="none" xmlns="http://www.w3.org/2000/svg">
<circle cx="49.1225" cy="49.5539" r="41.2351" fill="#FFC700"/>
<circle cx="151.952" cy="114.632" r="34.2381" fill="#FFC700"/>
<circle cx="41.4843" cy="160.762" r="28.2074" fill="#FFC700"/>
<path d="M69.9506 72.0471C77.8307 64.167 77.8619 51.4222 70.0205 43.5807L41.4842 72.1169C49.3257 79.9584 62.0705 79.9271 69.9506 72.0471Z" fill="black"/>
<ellipse cx="33.6637" cy="181.234" rx="9.71494" ry="5.34542" transform="rotate(-46.9165 33.6637 181.234)" fill="#FE8C33"/>
<ellipse cx="60.1197" cy="147.943" rx="9.71494" ry="5.34542" transform="rotate(-46.9165 60.1197 147.943)" fill="#FE8C33"/>
<ellipse cx="146.48" cy="119.348" rx="9.71494" ry="5.34542" transform="rotate(41.0416 146.48 119.348)" fill="#FE8C33"/>
<ellipse cx="30.1634" cy="162.456" rx="4.58724" ry="5.36841" transform="rotate(-45 30.1634 162.456)" fill="black"/>
<ellipse cx="27.9204" cy="161.938" rx="1.41501" ry="1.95215" transform="rotate(-45 27.9204 161.938)" fill="white"/>
<ellipse cx="43.6512" cy="147.385" rx="4.58724" ry="5.36841" transform="rotate(-45 43.6512 147.385)" fill="black"/>
<ellipse cx="41.408" cy="146.867" rx="1.41501" ry="1.95215" transform="rotate(-45 41.408 146.867)" fill="white"/>
<path d="M47.0438 174.687C52.0753 177.644 60.1213 173.096 57.6472 165.674" stroke="black" stroke-linecap="round"/>
<path d="M63.6143 21.3285C65.1784 17.7266 66.572 13.6048 64.9496 9.61114C63.9161 7.06721 61.9144 5.03802 59.3848 3.96996C56.8552 2.9019 54.0049 2.88247 51.461 3.91593C48.3916 5.16286 46.5833 6.91337 45.0301 10.5921C41.3514 9.03883 38.8346 9.04536 35.7652 10.2923C33.2213 11.3258 31.1921 13.3275 30.124 15.8571C29.056 18.3866 29.0365 21.2369 30.07 23.7808C31.6995 27.792 35.5553 29.7812 39.1986 31.2473L56.3659 38.4957L63.6143 21.3285Z" fill="#FE8C33"/>
<path d="M30.9528 36.1637C29.2896 32.6065 27.1239 28.8328 23.0569 27.4039C20.4663 26.4938 17.6203 26.65 15.1448 27.8382C12.6694 29.0264 10.7674 31.1493 9.85722 33.7399C8.75902 36.8656 8.87328 39.3798 10.6013 42.9797C7.00135 44.7077 5.33963 46.5979 4.24144 49.7236C3.33125 52.3142 3.48745 55.1603 4.67567 57.6357C5.86389 60.1111 7.98681 62.0131 10.5774 62.9233C14.6621 64.3585 18.706 62.7865 22.2172 61.0273L39.0168 52.9633L30.9528 36.1637Z" fill="#FE8C33"/>
<path d="M130.924 99.9805L152.408 96.0444" stroke="black" stroke-width="3.39084" stroke-linecap="round"/>
<path d="M139.944 89.4844L141.256 108.345" stroke="black" stroke-width="3.39084" stroke-linecap="round"/>
<path d="M131.161 136.653C136.527 142.019 142.526 136.02 145.49 133.057L134.758 122.325C131.794 125.289 125.796 131.288 131.161 136.653Z" fill="#FE8C33"/>
<path d="M168.314 133.353L169.306 111.534" stroke="black" stroke-width="3.39084" stroke-linecap="round"/>
<path d="M177.493 122.996L158.628 124.248" stroke="black" stroke-width="3.39084" stroke-linecap="round"/>
<path d="M131.218 117.278C131.218 117.278 133.737 123.145 138.866 128.274C143.996 133.404 150.879 136.077 150.879 136.077" stroke="black" stroke-width="2.8257" stroke-linecap="round"/>
<path d="M139.245 129.082L133.811 134.341" stroke="black" stroke-width="1.13028" stroke-linecap="round"/>
<path d="M17.9524 98.3701C18.3056 98.7758 17.9458 99.3989 17.4179 99.2959L5.83243 97.0356C5.45169 96.9613 5.25726 96.5343 5.45123 96.1983L9.28648 89.5554C9.48044 89.2195 9.94747 89.1744 10.2022 89.4669L17.9524 98.3701Z" fill="#FF7F00"/>
<path d="M95.4385 92.6739C94.5788 91.0556 95.9008 89.1406 97.7188 89.3707L99.6775 89.6186C101.359 89.8315 102.217 91.7507 101.254 93.1455L100.221 94.6412C99.2585 96.0361 97.1599 95.9143 96.3647 94.4175L95.4385 92.6739Z" fill="#FF7F00"/>
<path d="M95.4385 134.925C94.5788 133.307 95.9008 131.392 97.7188 131.622L99.6775 131.87C101.359 132.083 102.217 134.002 101.254 135.397L100.221 136.892C99.2585 138.287 97.1599 138.166 96.3647 136.669L95.4385 134.925Z" fill="#FF7F00"/>
<path d="M85.6453 184.674C84.7856 183.056 86.1076 181.141 87.9255 181.371L89.8843 181.619C91.5658 181.832 92.4237 183.751 91.4607 185.146L90.4282 186.642C89.4653 188.037 87.3667 187.915 86.5715 186.418L85.6453 184.674Z" fill="#FF7F00"/>
<path d="M8.40579 125.248C7.54612 123.63 8.86809 121.715 10.686 121.945L12.6448 122.193C14.3263 122.406 15.1842 124.325 14.2212 125.72L13.1887 127.216C12.2258 128.611 10.1272 128.489 9.33203 126.992L8.40579 125.248Z" fill="#FF7F00"/>
<path d="M153.544 151.994C155.561 151.115 157.518 153.342 156.386 155.229L153.805 159.534C153.018 160.847 151.179 161.014 150.168 159.863L148.149 157.565C147.138 156.414 147.539 154.613 148.943 154L153.544 151.994Z" fill="#FF7F00"/>
<path d="M116.279 64.4347C114.839 66.2255 111.956 64.976 112.278 62.7011L113.159 56.4913C113.368 55.0138 114.927 54.1411 116.296 54.7345L119.345 56.056C120.714 56.6495 121.143 58.3834 120.208 59.5465L116.279 64.4347Z" fill="#FF7F00"/>
</svg>
